# AST/ASF file generated using VICON BodyLanguage
# -----------------------------------------------
:version 1.10
:name VICON
:units
  mass 1.0
  length 0.45
  angle deg
:documentation
   .ast/.asf automatically generated from VICON data using
   VICON BodyBuilder and BodyLanguage model FoxedUp or BRILLIANT.MOD
:root
   order TX TY TZ RX RY RZ
   axis XYZ
   position 0 0 0  
   orientation 0 0 0 
:bonedata
  begin
     id 1 
     name lhipjoint
     direction 0.537252 -0.787203 0.302774 
     length 2.29576 
     axis 0 0 0  XYZ
  end
  begin
     id 2 
     name lfemur
     direction 0.34202 -0.939693 0  
     length 7.31114  
     axis 0 0 20  XYZ
    dof rx ry rz
    limits (-160.0 20.0)
           (-70.0 70.0)
           (-60.0 70.0)
  end
  begin
     id 3 
     name ltibia
     direction 0.34202 -0.939693 0   
     length 8.36008   
     axis 0 0 20   XYZ
    dof rx
    limits (-10.0 170.0)
  end
  begin
     id 4 
     name lfoot
     direction 0.0969116 -0.266263 0.959016   
     length 2.16704   
     axis -90 7.62852e-016 20   XYZ
    dof rx rz
    limits (-45.0 90.0)
           (-70.0 20.0)
  end
  begin
     id 5 
     name ltoes
     direction 1.53563e-011 -4.21779e-011 1   
     length 1.08338   
     axis -90 7.62852e-016 20   XYZ
    dof rx
    limits (-90.0 20.0)
  end
  begin
     id 6 
     name rhipjoint
     direction -0.588228 -0.754791 0.290308   
     length 2.39434  
     axis 0 0 0  XYZ 
  end
  begin
     id 7 
     name rfemur
     direction -0.34202 -0.939693 0   
     length 7.45207   
     axis 0 0 -20   XYZ
    dof rx ry rz
    limits (-160.0 20.0)
           (-70.0 70.0)
           (-70.0 60.0)
  end
  begin
     id 8 
     name rtibia
     direction -0.34202 -0.939693 0   
     length 8.03565   
     axis 0 0 -20   XYZ
    dof rx
    limits (-10.0 170.0)
 end
 begin
     id 9 
     name rfoot
     direction -0.107009 -0.294004 0.949795   
     length 2.11509  
     axis -90 -7.62852e-016 -20   XYZ
    dof rx rz
    limits (-45.0 90.0)
           (-20.0 70.0)
  end
  begin
     id 10 
     name rtoes
     direction -1.53533e-011 -4.22004e-011 1   
     length 1.05493   
     axis -90 -7.62852e-016 -20   XYZ
    dof rx
    limits (-90.0 20.0)
  end
  begin
     id 11 
     name lowerback
     direction -0.0115208 0.997969 -0.0626515   
     length 2.03153   
     axis 0 0 0   XYZ
    dof rx ry rz
    limits (-20.0 45.0)
           (-30.0 30.0)
           (-30.0 30.0)
  end
  begin
     id 12 
     name upperback
     direction -0.00423475 0.999974 -0.00583614   
     length 2.03619   
     axis 0 0 0   XYZ
    dof rx ry rz
    limits (-20.0 45.0)
           (-30.0 30.0)
           (-30.0 30.0)
  end
  begin
     id 13 
     name thorax
     direction 0.00289429 0.999728 0.0231573   
     length 2.03921   
     axis 0 0 0   XYZ
    dof rx ry rz
    limits (-20.0 45.0)
           (-30.0 30.0)
           (-30.0 30.0)
  end
  begin
     id 14 
     name lowerneck
     direction 0.0188995 0.987777 0.154721   
     length 1.78836   
     axis 0 0 0   XYZ
    dof rx ry rz
    limits (-20.0 45.0)
           (-30.0 30.0)
           (-30.0 30.0)
  end
  begin
     id 15 
     name upperneck
     direction -0.00612612 0.992995 -0.118   
     length 1.81789   
     axis 0 0 0   XYZ
    dof rx ry rz
    limits (-20.0 45.0)
           (-30.0 30.0)
           (-30.0 30.0)
  end
  begin
     id 16
     name head
     direction -0.00420226 0.998397 -0.0564482  
     length 1.82234  
     axis 0 0 0   XYZ
    dof rx ry rz
    limits (-20.0 45.0)
           (-30.0 30.0)
           (-30.0 30.0)
  end
  begin
     id 17 
     name lclavicle
     direction 0.916488 0.396539 0.0529676  
     length 3.51732  
     axis 0 0 0   XYZ
    dof ry rz
    limits (-20.0 10.0)
           (0.0 20.0)
  end
  begin
     id 18 
     name lhumerus
     direction 1 -4.4896e-011 8.36962e-028   
     length 5.45077   
     axis 180 -30 -90   XYZ
    dof rx ry rz
    limits (-60.0 90.0)
           (-90.0 90.0)
           (-90.0 90.0)
  end
  begin
     id 19
     name lradius
     direction 1 -4.48962e-011 3.01407e-027   
     length 3.05488   
     axis 180 -30 -90   XYZ
    dof rx
    limits (-10.0 170.0)
  end
  begin
     id 20
     name lwrist
     direction 1 -4.49002e-011 4.72961e-027   
     length 1.52744   
     axis -2.72261e-015 90 90   XYZ
    dof ry
    limits (-180.0 0.0)
 end
  begin
     id 21 
     name lhand
     direction 1 -4.4899e-011 9.45681e-027   
     length 0.638818   
     axis -6.0311e-015 90 90   XYZ
    dof rx rz
    limits (-90.0 90.0)
           (-45.0 45.0)
  end
  begin
     id 22 
     name lfingers
     direction 1 -4.48871e-011 1.88632e-026   
     length 0.515032   
     axis -1.20625e-014 90 90   XYZ
    dof rx
    limits (0.0 90.0)
  end
  begin
     id 23
     name lthumb
     direction 0.707107 -6.34964e-011 0.707107   
     length 0.739485   
     axis -90 45 6.32835e-014   XYZ
    dof rx rz
    limits (-45.0 45.0)
           (-45.0 45.0)
  end
  begin
     id 24 
     name rclavicle
     direction -0.949427 0.303202 0.0815894   
     length 3.76167  
     axis 0 0 0   XYZ 
    dof ry rz
    limits (-10.0 20.0)
           (-20.0 0.0)
  end
  begin
     id 25 
     name rhumerus
     direction -1 -4.48971e-011 -6.43969e-018  
     length 4.88702   
     axis 180 30 90   XYZ
    dof rx ry rz
    limits (-90.0 60.0)
           (-90.0 90.0)
           (-90.0 90.0)
  end
  begin
     id 26 
     name rradius
     direction -1 -4.48987e-011 5.46662e-027   
     length 3.22603   
     axis 180 30 90   XYZ
    dof rx
    limits (-10.0 170.0)
  end
  begin
     id 27 
     name rwrist
     direction -1 -4.48956e-011 4.72476e-027   
     length 1.61302   
     axis -2.72261e-015 -90 -90   XYZ
    dof ry
    limits (-180.0 0.0)
  end
  begin
     id 28
     name rhand
     direction -1 -4.4889e-011 9.43571e-027   
     length 0.716293   
     axis -6.0311e-015 -90 -90   XYZ
    dof rx rz
    limits (-90.0 90.0)
           (-45.0 45.0)
  end
  begin
     id 29
     name rfingers
     direction -1 -4.48887e-011 1.88701e-026   
     length 0.577494   
     axis -1.20625e-014 -90 -90   XYZ
    dof rx
    limits (0.0 90.0)
  end
  begin
     id 30
     name rthumb
     direction -0.707107 -6.34825e-011 0.707107   
     length 0.829169   
     axis -90 -45 -6.32835e-014   XYZ
    dof rx rz
    limits (-45.0 45.0)
           (-45.0 45.0)
  end
:hierarchy
  begin
    root lhipjoint rhipjoint lowerback
    lhipjoint lfemur
    lfemur ltibia
    ltibia lfoot
    lfoot ltoes
    rhipjoint rfemur
    rfemur rtibia
    rtibia rfoot
    rfoot rtoes
    lowerback upperback
    upperback thorax
    thorax lowerneck lclavicle rclavicle
    lowerneck upperneck
    upperneck head
    lclavicle lhumerus
    lhumerus lradius
    lradius lwrist
    lwrist lhand lthumb
    lhand lfingers
    rclavicle rhumerus
    rhumerus rradius
    rradius rwrist
    rwrist rhand rthumb
    rhand rfingers
  end

#!OML:ASF F:\VICON\USERDATA\INSTALL\rory3\rory3.ASF
:FULLY-SPECIFIED
:DEGREES
568
root 1.59857 18.5369 0.626367 21.3459 76.825 9.66904
lowerback -9.92068 -2.2057 -2.56982
upperback -2.50661 -2.58208 -0.561688
thorax 3.03763 -1.26747 0.54293
lowerneck -19.9645 0.522836 3.40318
upperneck 26.4984 0.616279 -2.56323
head 12.0545 0.375707 -1.42147
rclavicle -2.45996e-015 9.24349e-015
rhumerus -37.9978 4.87722 -86.7759
rradius 100.407
rwrist 29.1002
rhand -27.5366 17.8465
rfingers 7.12502
rthumb -0.938366 -12.1312
lclavicle -2.45996e-015 9.24349e-015
lhumerus -36.6366 -28.9587 96.4441
lradius 87.6464
lwrist 9.79794
lhand -7.11551 32.7828
lfingers 7.12502
lthumb 18.7597 61.8982
rfemur -11.2387 -7.66123 15.6443
rtibia 6.10099
rfoot -1.90408 19.2084
rtoes -5.49776
lfemur -10.8335 9.72609 -20.7359
ltibia 14.4767
lfoot -14.7525 9.69454
ltoes -28.72
569
root 1.59735 18.5345 0.625508 21.2333 76.574 9.58044
lowerback -9.93591 -2.2487 -2.58147
upperback -2.56769 -2.64085 -0.474191
thorax 2.98899 -1.29563 0.633387
lowerneck -19.7581 0.639096 3.56797
upperneck 26.5529 0.833291 -2.86649
head 12.0441 0.452687 -1.5287
rclavicle -4.50185e-014 -1.78906e-015
rhumerus -37.1711 4.7387 -87.1899
rradius 100.588
rwrist 29.2681
rhand -27.7395 17.819
rfingers 7.12502
rthumb -1.1343 -12.1578
lclavicle -4.50185e-014 -1.78906e-015
lhumerus -36.3286 -29.2831 96.4141
lradius 87.7769
lwrist 9.65199
lhand -9.04237 31.1288
lfingers 7.12502
lthumb 16.9057 60.413
rfemur -11.2539 -7.41932 15.5674
rtibia 6.09532
rfoot -1.85808 19.2084
rtoes -5.54208
lfemur -10.795 9.80129 -20.7864
ltibia 14.5202
lfoot -14.7828 9.76245
ltoes -28.086
570
root 1.59789 18.5329 0.62395 21.134 76.2768 9.54928
lowerback -9.9089 -2.28893 -2.58657
upperback -2.63454 -2.69681 -0.419666
thorax 2.90931 -1.32195 0.688221
lowerneck -19.5385 0.77449 3.81948
upperneck 26.6528 1.06601 -3.21316
head 12.0514 0.541249 -1.66527
rclavicle 2.24347e-014 -1.12313e-014
rhumerus -36.433 4.73713 -87.6578
rradius 100.847
rwrist 29.4309
rhand -27.8465 17.6677
rfingers 7.12502
rthumb -1.23765 -12.3084
lclavicle 2.24347e-014 -1.12313e-014
lhumerus -35.9978 -29.497 96.1903
lradius 87.9696
lwrist 8.95516
lhand -7.96991 29.8337
lfingers 7.12502
lthumb 17.9378 59.0265
rfemur -11.2524 -7.13576 15.4562
rtibia 6.14453
rfoot -1.90087 19.2122
rtoes -5.63342
lfemur -10.6816 9.98087 -20.8626
ltibia 14.5142
lfoot -14.7947 9.78248
ltoes -27.3895
571
root 1.59956 18.5332 0.619955 20.8023 76.0581 9.24416
lowerback -9.89311 -2.32616 -2.50162
upperback -2.70457 -2.75884 -0.326779
thorax 2.83058 -1.351 0.731297
lowerneck -19.4862 0.900862 4.00055
upperneck 26.9398 1.28615 -3.47441
head 12.1662 0.629589 -1.76289
rclavicle 1.55984e-014 6.06293e-015
rhumerus -35.6342 4.80401 -87.9758
rradius 101.045
rwrist 29.6363
rhand -28.0143 17.5719
rfingers 7.12502
rthumb -1.39977 -12.4033
lclavicle 1.55984e-014 6.06293e-015
lhumerus -35.5808 -29.8538 95.9204
lradius 88.0919
lwrist 8.26194
lhand -6.74621 29.1688
lfingers 7.12502
lthumb 19.1149 58.2494
rfemur -11.2902 -6.90416 15.4383
rtibia 6.2234
rfoot -1.88008 19.2582
rtoes -5.4883
lfemur -10.6035 9.96346 -20.8445
ltibia 14.48
lfoot -14.8616 9.96184
ltoes -26.9829
572
root 1.60142 18.5331 0.613535 20.9098 75.7003 9.28074
lowerback -10.0211 -2.36119 -2.51619
upperback -2.76623 -2.80205 -0.239643
thorax 2.84353 -1.37143 0.82056
lowerneck -19.4779 1.06578 4.14742
upperneck 27.2153 1.57048 -3.73046
head 12.2903 0.742569 -1.84288
rclavicle -3.44332e-014 -4.82053e-015
rhumerus -34.734 5.05293 -88.193
rradius 101.212
rwrist 29.759
rhand -27.8638 17.4503
rfingers 7.12502
rthumb -1.2544 -12.5257
lclavicle -3.44332e-014 -4.82053e-015
lhumerus -35.0441 -30.1989 95.5869
lradius 88.3491
lwrist 7.86936
lhand -7.15951 28.6463
lfingers 7.12502
lthumb 18.7174 57.7658
rfemur -11.5217 -6.58757 15.2766
rtibia 6.37392
rfoot -1.85851 19.2657
rtoes -5.3089
lfemur -10.6335 10.0312 -21.0055
ltibia 14.4322
lfoot -14.8933 10.2027
ltoes -26.9683
573
root 1.60304 18.533 0.607264 20.8805 75.308 9.24918
lowerback -10.1266 -2.36638 -2.47512
upperback -2.80826 -2.81012 -0.210731
thorax 2.85777 -1.37451 0.823323
lowerneck -19.3642 1.20788 4.36401
upperneck 27.4564 1.80575 -3.99005
head 12.3794 0.841587 -1.9437
rclavicle -3.81533e-014 -4.44159e-016
rhumerus -33.8687 5.36026 -88.4114
rradius 101.377
rwrist 29.754
rhand -27.7204 17.3554
rfingers 7.12502
rthumb -1.1159 -12.6215
lclavicle -3.81533e-014 -4.44159e-016
lhumerus -34.5449 -30.5647 95.1705
lradius 88.7811
lwrist 7.20493
lhand -7.29921 28.5723
lfingers 7.12502
lthumb 18.583 57.7047
rfemur -11.6366 -6.22939 15.1033
rtibia 6.45337
rfoot -1.79075 19.2441
rtoes -4.99731
lfemur -10.5518 10.2119 -21.1514
ltibia 14.3854
lfoot -14.9838 10.3701
ltoes -26.7513
574
root 1.60211 18.5319 0.604458 20.5987 74.8898 9.00919
lowerback -10.1803 -2.30274 -2.38096
upperback -2.801 -2.73307 -0.230352
thorax 2.88699 -1.33626 0.757938
lowerneck -19.3621 1.30915 4.59391
upperneck 27.7053 1.94925 -4.17619
head 12.4907 0.909313 -2.03454
rclavicle -1.4819e-014 1.26415e-014
rhumerus -32.9366 5.52796 -88.6234
rradius 101.532
rwrist 29.7256
rhand -27.4179 17.1819
rfingers 7.12502
rthumb -0.823697 -12.7962
lclavicle -1.4819e-014 1.26415e-014
lhumerus -33.9059 -31.1966 94.5754
lradius 89.154
lwrist 6.47176
lhand -7.35305 28.4344
lfingers 7.12502
lthumb 18.5312 57.5718
rfemur -11.7724 -5.81392 15.0062
rtibia 6.64891
rfoot -1.81235 19.2537
rtoes -4.84046
lfemur -10.3836 10.5194 -21.2212
ltibia 14.2497
lfoot -14.9903 10.4971
ltoes -27.093
575
root 1.6028 18.5335 0.599747 20.3827 74.4924 8.87567
lowerback -10.2185 -2.25886 -2.33909
upperback -2.71885 -2.68034 -0.206122
thorax 2.99089 -1.31243 0.762898
lowerneck -19.6174 1.42897 4.76153
upperneck 28.0472 2.12964 -4.35883
head 12.6956 0.984104 -2.10986
rclavicle -1.63345e-014 -1.29707e-014
rhumerus -31.8652 5.83206 -88.6532
rradius 101.654
rwrist 29.624
rhand -27.2185 16.9014
rfingers 7.12502
rthumb -0.631163 -13.0774
lclavicle -1.63345e-014 -1.29707e-014
lhumerus -32.9338 -31.9113 93.8239
lradius 89.4169
lwrist 5.93895
lhand -7.6498 28.0504
lfingers 7.12502
lthumb 18.2458 57.2146
rfemur -11.8276 -5.42597 14.8797
rtibia 6.78078
rfoot -1.79117 19.2822
rtoes -4.63001
lfemur -10.2493 10.4212 -21.261
ltibia 14.1404
lfoot -15.0835 10.8706
ltoes -26.7431
576
root 1.60792 18.532 0.595223 20.2598 73.9534 8.91323
lowerback -10.2125 -2.25201 -2.38188
upperback -2.68059 -2.66923 -0.177855
thorax 3.03027 -1.30848 0.81683
lowerneck -19.55 1.61819 5.01113
upperneck 28.298 2.44028 -4.66752
head 12.8097 1.11256 -2.22459
rclavicle 4.68014e-014 -1.02871e-014
rhumerus -30.9321 6.4097 -88.6961
rradius 101.779
rwrist 29.4768
rhand -27.1056 16.4555
rfingers 7.12502
rthumb -0.522124 -13.5236
lclavicle 4.68014e-014 -1.02871e-014
lhumerus -32.0536 -32.3238 93.0105
lradius 89.7444
lwrist 5.30545
lhand -7.80584 28.0902
lfingers 7.12502
lthumb 18.0957 57.2684
rfemur -11.6887 -4.9257 14.6133
rtibia 6.6817
rfoot -1.61668 19.2848
rtoes -3.99807
lfemur -10.15 10.277 -21.3768
ltibia 14.1807
lfoot -15.2752 11.4164
ltoes -26.372
577
root 1.6105 18.5293 0.590479 19.5309 73.5329 8.2893
lowerback -10.1743 -2.32479 -2.27212
upperback -2.72433 -2.78584 0.00116022
thorax 2.97142 -1.36558 0.928021
lowerneck -19.1485 1.8373 5.20218
upperneck 28.4387 2.86461 -5.07252
head 12.8198 1.27706 -2.34592
rclavicle -1.54369e-015 1.78906e-015
rhumerus -30.0958 7.30144 -88.6645
rradius 101.881
rwrist 29.0077
rhand -26.8907 15.9121
rfingers 7.12502
rthumb -0.314476 -14.0674
lclavicle -1.54369e-015 1.78906e-015
lhumerus -31.4152 -32.2067 92.2794
lradius 90.2086
lwrist 4.2891
lhand -7.66188 28.5561
lfingers 7.12502
lthumb 18.2342 57.7214
rfemur -11.5262 -4.46757 14.5995
rtibia 6.46591
rfoot -1.42644 19.3209
rtoes -4.03611
lfemur -10.02 10.5157 -21.3161
ltibia 14.3041
lfoot -15.523 11.5588
ltoes -25.7134
